<?xml version="1.0" encoding="utf-8"?>
<!-- Generator: Adobe Illustrator 16.0.0, SVG Export Plug-In . SVG Version: 6.00 Build 0)  -->
<!DOCTYPE svg PUBLIC "-//W3C//DTD SVG 1.1//EN" "http://www.w3.org/Graphics/SVG/1.1/DTD/svg11.dtd">
<svg version="1.1" id="Camada_1" xmlns="http://www.w3.org/2000/svg" xmlns:xlink="http://www.w3.org/1999/xlink" x="0px" y="0px"
	 width="300px" height="105px" viewBox="0 0 300 105" enable-background="new 0 0 300 105" xml:space="preserve">
<g>
	<path fill="#EDEBD7" d="M47.257,76.227c0,2.57-0.491,4.908-1.476,7.012c-0.984,2.107-2.447,3.926-4.389,5.459
		c-1.942,1.529-4.375,2.705-7.3,3.525c-2.927,0.818-6.331,1.23-10.213,1.23c-1.313,0-2.721-0.094-4.225-0.287
		s-3.022-0.492-4.553-0.902c-1.532-0.412-3.021-0.932-4.47-1.559c-1.45-0.631-2.776-1.354-3.979-2.172l2.871-4.926
		c1.859,1.258,3.964,2.258,6.316,2.996s4.758,1.109,7.219,1.109c4.102,0,7.246-0.934,9.434-2.791
		c2.187-1.861,3.282-4.758,3.282-8.695v-0.82H25.521c-3.774,0-7.208-0.492-10.295-1.477c-3.09-0.984-5.729-2.379-7.916-4.184
		c-2.188-1.805-3.869-3.965-5.045-6.48C1.088,60.75,0.5,57.961,0.5,54.898c0-3.061,0.588-5.85,1.764-8.367
		c1.176-2.515,2.857-4.676,5.045-6.482c2.187-1.803,4.826-3.199,7.916-4.182c3.088-0.984,6.521-1.477,10.295-1.477h21.737V76.227z
		 M25.521,40.132c-3.938,0-7.042,1.218-9.312,3.652c-2.27,2.434-3.403,6.138-3.403,11.114c0,4.979,1.133,8.684,3.403,11.115
		c2.269,2.434,5.374,3.652,9.312,3.652h10.253V40.132H25.521z"/>
	<path fill="#EDEBD7" d="M83.352,72.945c2.678,0,5.181-0.465,7.506-1.395c2.323-0.932,4.606-2.242,6.849-3.938l3.282,4.92
		c-1.039,0.932-2.256,1.779-3.651,2.547c-1.394,0.766-2.899,1.406-4.512,1.924c-1.613,0.521-3.296,0.93-5.045,1.234
		c-1.751,0.299-3.501,0.449-5.25,0.449c-3.883,0-7.424-0.508-10.623-1.518c-3.199-1.012-5.92-2.488-8.162-4.43
		c-2.243-1.941-3.979-4.332-5.208-7.178c-1.231-2.842-1.847-6.125-1.847-9.844c0-3.664,0.587-6.931,1.764-9.801
		c1.175-2.873,2.816-5.278,4.92-7.22c2.105-1.941,4.608-3.418,7.507-4.43c2.898-1.011,6.098-1.518,9.598-1.518
		c3.281,0,6.371,0.493,9.269,1.477c2.898,0.983,5.414,2.42,7.546,4.306c2.134,1.887,3.829,4.171,5.086,6.851
		c1.258,2.679,1.886,5.715,1.886,9.102v5.746H69.242c0.657,4.539,2.228,7.791,4.717,9.76C76.447,71.961,79.577,72.945,83.352,72.945
		z M80.48,38.082c-1.588,0-3.063,0.301-4.43,0.902c-1.368,0.602-2.557,1.559-3.568,2.872c-1.012,1.313-1.833,3.008-2.461,5.086
		c-0.629,2.079-0.972,4.594-1.024,7.544h22.968c0-2.841-0.328-5.302-0.985-7.38c-0.656-2.078-1.518-3.787-2.583-5.127
		c-1.067-1.34-2.298-2.325-3.692-2.954C83.31,38.397,81.901,38.082,80.48,38.082z"/>
	<path fill="#EDEBD7" d="M222.802,32.75c3.662,0,7.041,0.507,10.132,1.518c3.088,1.012,5.727,2.489,7.916,4.43
		c2.187,1.941,3.894,4.347,5.127,7.22c1.229,2.87,1.844,6.138,1.844,9.801c0,3.719-0.614,7.002-1.844,9.844
		c-1.233,2.846-2.94,5.236-5.127,7.178c-2.189,1.941-4.828,3.418-7.916,4.43c-3.091,1.01-6.47,1.518-10.132,1.518
		c-3.722,0-7.111-0.508-10.172-1.518c-3.064-1.012-5.689-2.488-7.875-4.43c-2.188-1.941-3.896-4.332-5.127-7.178
		c-1.232-2.842-1.847-6.125-1.847-9.844c0-3.664,0.614-6.931,1.847-9.801c1.23-2.873,2.938-5.278,5.127-7.22
		c2.186-1.941,4.811-3.418,7.875-4.43C215.69,33.257,219.08,32.75,222.802,32.75z M222.802,73.355c1.749,0,3.391-0.326,4.921-0.984
		c1.533-0.658,2.873-1.682,4.019-3.076c1.149-1.395,2.066-3.213,2.748-5.455c0.685-2.24,1.027-4.949,1.027-8.121
		c0-3.17-0.343-5.877-1.027-8.12c-0.682-2.244-1.599-4.062-2.748-5.456c-1.146-1.396-2.485-2.42-4.019-3.077
		c-1.53-0.656-3.172-0.984-4.921-0.984c-1.751,0-3.392,0.329-4.923,0.984c-1.533,0.657-2.87,1.681-4.02,3.077
		c-1.149,1.395-2.064,3.212-2.747,5.456c-0.686,2.242-1.023,4.949-1.023,8.12c0,3.172,0.338,5.881,1.023,8.121
		c0.683,2.242,1.598,4.061,2.747,5.455s2.486,2.418,4.02,3.076C219.41,73.029,221.051,73.355,222.802,73.355z"/>
	<path fill="#EDEBD7" d="M267.099,43.413c0,1.26,0.56,2.409,1.681,3.446c1.121,1.04,3.021,1.942,5.701,2.708l12.715,3.691
		c3.937,1.146,6.973,2.707,9.107,4.676c2.132,1.969,3.197,4.51,3.197,7.629c0,1.969-0.408,3.76-1.23,5.373
		c-0.819,1.613-2.158,2.994-4.02,4.145c-1.86,1.146-4.264,2.035-7.217,2.664c-2.953,0.627-6.592,0.943-10.911,0.943
		c-2.243,0-4.446-0.164-6.604-0.492c-2.16-0.33-4.211-0.779-6.151-1.354c-1.944-0.572-3.707-1.23-5.291-1.971
		c-1.589-0.734-2.954-1.516-4.103-2.338l3.28-4.92c2.297,1.422,4.991,2.668,8.081,3.73c3.09,1.07,6.686,1.602,10.787,1.602
		c4.103,0,6.972-0.547,8.612-1.641s2.461-2.459,2.461-4.1c0-1.258-0.573-2.395-1.723-3.406c-1.148-1.012-3.173-1.928-6.069-2.748
		l-12.718-3.693c-3.498-1.035-6.355-2.527-8.569-4.468c-2.216-1.94-3.323-4.552-3.323-7.836c0-1.748,0.396-3.375,1.188-4.879
		c0.794-1.503,2.039-2.801,3.735-3.896c1.692-1.093,3.855-1.955,6.478-2.583c2.628-0.628,5.797-0.944,9.519-0.944
		c4.538,0,8.653,0.615,12.344,1.845c3.692,1.23,6.686,2.667,8.984,4.307l-3.282,4.923c-2.243-1.422-4.784-2.667-7.629-3.733
		s-6.316-1.599-10.417-1.599c-2.9,0-5.059,0.466-6.481,1.395C267.807,40.816,267.099,41.992,267.099,43.413z"/>
</g>
<g>
	<polygon fill="#FF9000" points="130.554,69.895 116.638,76.854 116.638,35.106 130.554,28.148 	"/>
	<polygon fill="#FF9000" points="158.386,97.729 144.47,104.686 144.47,62.939 158.386,55.98 	"/>
	<polygon fill="#FF9000" points="158.386,42.063 144.47,49.021 144.47,7.273 158.386,0.315 	"/>
	<polygon fill="#FF9000" points="186.22,69.895 172.303,76.854 172.303,35.106 186.22,28.148 	"/>
</g>
</svg>
